# xmcd
#
# Track frame offsets:
#	150
#	18010
#	34600
#	50695
#	81015
#	101730
#	135950
#	155775
#	173925
#	193630
#	228635
#	241740
#	256995
#	275420
#	278930
#	292620
#
# Disc length: 4153 seconds
#
# Revision: 1
# Processed by: cddbd v1.5.1PL0 Copyright (c) Steve Scherf et al.
# Submitted via: audiograbber 1.83.01
#
DISCID=d3103710
DTITLE=Coastline Band - Lost At Sea, Live Bait 2
DYEAR=1900
DGENRE=Beach Music
TTITLE0=Don't Let the Green Grass Fool Ya [Live]
TTITLE1=Harlem Hit Parade [Live]
TTITLE2=Stagger Lee [Live]
TTITLE3=Old Love [Live]
TTITLE4=Part Time Party Time Man [Live]
TTITLE5=New Poo Pah Doo [Live]
TTITLE6=Hey Bartender [Live]
TTITLE7=How Sweet It Is [Live]
TTITLE8=Kiss [Live]
TTITLE9=Purple Rain [Live]
TTITLE10=Nip Sip [Live]
TTITLE11=Some Kind Of Wonderful [Live]
TTITLE12=Sweet Home Chicago [Live]
TTITLE13=Poodlee Doo In The Key Of C [Live]
TTITLE14=Such A Long Time Ago [Live]
TTITLE15=Take It All [Live]
EXTD=
EXTT0=
EXTT1=
EXTT2=
EXTT3=
EXTT4=
EXTT5=
EXTT6=
EXTT7=
EXTT8=
EXTT9=
EXTT10=
EXTT11=
EXTT12=
EXTT13=
EXTT14=
EXTT15=
PLAYORDER=
